<?xml version="1.0" encoding="UTF-8"?>
<svg xmlns="http://www.w3.org/2000/svg" width="280" height="56" viewBox="0 0 280 56" fill="none">
  <defs>
    <symbol id="icon-deposit" viewBox="0 0 56 56">
      <rect width="56" height="56" rx="14" fill="white"/>
      <ellipse cx="28" cy="24" rx="10" ry="4" stroke="#3B82F6" stroke-width="2" fill="#DBEAFE"/>
      <path d="M18 24v10c0 5.5 4.5 8 10 8s10-2.5 10-8V24" stroke="#3B82F6" stroke-width="2" fill="none"/>
      <path d="M28 14v8M24 18l4-4 4 4" stroke="#3B82F6" stroke-width="2" stroke-linecap="round" stroke-linejoin="round"/>
    </symbol>
    <symbol id="icon-payment-link" viewBox="0 0 56 56">
      <rect width="56" height="56" rx="14" fill="white"/>
      <path d="M20 28c0-4.4 3.6-8 8-8h2c4.4 0 8 3.6 8 8s-3.6 8-8 8h-2" stroke="#16A34A" stroke-width="2.2" stroke-linecap="round"/>
      <path d="M36 28c0 4.4-3.6 8-8 8h-2c-4.4 0-8-3.6-8-8s3.6-8 8-8h2" stroke="#16A34A" stroke-width="2.2" stroke-linecap="round"/>
    </symbol>
    <symbol id="icon-booking-link" viewBox="0 0 56 56">
      <rect width="56" height="56" rx="14" fill="white"/>
      <rect x="16" y="18" width="24" height="22" rx="3" stroke="#A16207" stroke-width="2" fill="none"/>
      <path d="M16 24h24" stroke="#A16207" stroke-width="2"/>
      <path d="M22 16v6M34 16v6" stroke="#A16207" stroke-width="2" stroke-linecap="round"/>
      <rect x="21" y="29" width="5" height="5" rx="1" fill="#A16207"/>
      <rect x="30" y="29" width="5" height="5" rx="1" stroke="#A16207" stroke-width="1.5" fill="none"/>
    </symbol>
    <symbol id="icon-book-appointment" viewBox="0 0 56 56">
      <rect width="56" height="56" rx="14" fill="white"/>
      <rect x="16" y="18" width="24" height="22" rx="3" stroke="#DC2626" stroke-width="2" fill="none"/>
      <path d="M16 24h24" stroke="#DC2626" stroke-width="2"/>
      <path d="M22 16v6M34 16v6" stroke="#DC2626" stroke-width="2" stroke-linecap="round"/>
      <path d="M22 31l4 4 8-9" stroke="#DC2626" stroke-width="2.2" stroke-linecap="round" stroke-linejoin="round"/>
    </symbol>
    <symbol id="icon-quick-replies" viewBox="0 0 56 56">
      <rect width="56" height="56" rx="14" fill="white"/>
      <path d="M18 20h20a3 3 0 0 1 3 3v8a3 3 0 0 1-3 3H24l-6 5v-5h0a3 3 0 0 1-3-3v-8a3 3 0 0 1 3-3z" stroke="#171717" stroke-width="2" fill="none"/>
      <path d="M28 24l-4 7h3l-1 5 5-8h-3l4-4z" fill="#171717"/>
    </symbol>
  </defs>
  <use href="#icon-deposit" x="0" y="0" width="56" height="56"/>
  <use href="#icon-payment-link" x="56" y="0" width="56" height="56"/>
  <use href="#icon-booking-link" x="112" y="0" width="56" height="56"/>
  <use href="#icon-book-appointment" x="168" y="0" width="56" height="56"/>
  <use href="#icon-quick-replies" x="224" y="0" width="56" height="56"/>
</svg>
